<svg xmlns="http://www.w3.org/2000/svg" width="840" height="340" font-family="Helvetica, Arial, sans-serif" font-size="11">
<rect width="100%" height="100%" fill="white"/>
<text x="240.0" y="28" text-anchor="middle" font-weight="bold">H4 (sink-only): misattribute_parent / label_trusting, k=1 — depth-invariant</text>
<rect x="60" y="50" width="340" height="210" fill="none" stroke="#444"/>
<line x1="60" y1="260.0" x2="400" y2="260.0" stroke="#eee"/>
<text x="54" y="264.0" text-anchor="end">0</text>
<text x="60.0" y="274" text-anchor="middle">0</text>
<line x1="60" y1="207.5" x2="400" y2="207.5" stroke="#eee"/>
<text x="54" y="211.5" text-anchor="end">0.25</text>
<text x="145.0" y="274" text-anchor="middle">0.25</text>
<line x1="60" y1="155.0" x2="400" y2="155.0" stroke="#eee"/>
<text x="54" y="159.0" text-anchor="end">0.5</text>
<text x="230.0" y="274" text-anchor="middle">0.5</text>
<line x1="60" y1="102.5" x2="400" y2="102.5" stroke="#eee"/>
<text x="54" y="106.5" text-anchor="end">0.75</text>
<text x="315.0" y="274" text-anchor="middle">0.75</text>
<line x1="60" y1="50.0" x2="400" y2="50.0" stroke="#eee"/>
<text x="54" y="54.0" text-anchor="end">1</text>
<text x="400.0" y="274" text-anchor="middle">1</text>
<text x="230.0" y="288" text-anchor="middle">provenance error rate p</text>
<polygon points="60.0,260.0 77.0,235.5 94.0,207.5 145.0,158.5 230.0,109.5 315.0,78.0 400.0,50.0 400.0,50.0 315.0,116.5 230.0,176.0 145.0,218.0 94.0,249.5 77.0,256.5 60.0,260.0" fill="#1f77b4" fill-opacity="0.10" stroke="none"/>
<circle cx="60.0" cy="260.0" r="3" fill="#1f77b4"/>
<circle cx="77.0" cy="246.0" r="3" fill="#1f77b4"/>
<circle cx="94.0" cy="232.0" r="3" fill="#1f77b4"/>
<circle cx="145.0" cy="190.0" r="3" fill="#1f77b4"/>
<circle cx="230.0" cy="144.5" r="3" fill="#1f77b4"/>
<circle cx="315.0" cy="99.0" r="3" fill="#1f77b4"/>
<circle cx="400.0" cy="50.0" r="3" fill="#1f77b4"/>
<polyline points="60.0,260.0 63.4,257.9 66.8,255.8 70.2,253.7 73.6,251.6 77.0,249.5 80.4,247.4 83.8,245.3 87.2,243.2 90.6,241.1 94.0,239.0 97.4,236.9 100.8,234.8 104.2,232.7 107.6,230.6 111.0,228.5 114.4,226.4 117.8,224.3 121.2,222.2 124.6,220.1 128.0,218.0 131.4,215.9 134.8,213.8 138.2,211.7 141.6,209.6 145.0,207.5 148.4,205.4 151.8,203.3 155.2,201.2 158.6,199.1 162.0,197.0 165.4,194.9 168.8,192.8 172.2,190.7 175.6,188.6 179.0,186.5 182.4,184.4 185.8,182.3 189.2,180.2 192.6,178.1 196.0,176.0 199.4,173.9 202.8,171.8 206.2,169.7 209.6,167.6 213.0,165.5 216.4,163.4 219.8,161.3 223.2,159.2 226.6,157.1 230.0,155.0 233.4,152.9 236.8,150.8 240.2,148.7 243.6,146.6 247.0,144.5 250.4,142.4 253.8,140.3 257.2,138.2 260.6,136.1 264.0,134.0 267.4,131.9 270.8,129.8 274.2,127.7 277.6,125.6 281.0,123.5 284.4,121.4 287.8,119.3 291.2,117.2 294.6,115.1 298.0,113.0 301.4,110.9 304.8,108.8 308.2,106.7 311.6,104.6 315.0,102.5 318.4,100.4 321.8,98.3 325.2,96.2 328.6,94.1 332.0,92.0 335.4,89.9 338.8,87.8 342.2,85.7 345.6,83.6 349.0,81.5 352.4,79.4 355.8,77.3 359.2,75.2 362.6,73.1 366.0,71.0 369.4,68.9 372.8,66.8 376.2,64.7 379.6,62.6 383.0,60.5 386.4,58.4 389.8,56.3 393.2,54.2 396.6,52.1 400.0,50.0" fill="none" stroke="#1f77b4" stroke-width="1.8" stroke-dasharray="5,3"/>
<line x1="420" y1="50" x2="442" y2="50" stroke="#1f77b4" stroke-width="2.5"/>
<text x="448" y="54">depth=1 · law m=1,k=1 · R²=0.98</text>
<polygon points="60.0,260.0 77.0,242.5 94.0,228.5 145.0,214.5 230.0,165.5 315.0,88.5 400.0,50.0 400.0,50.0 315.0,141.0 230.0,207.5 145.0,249.5 94.0,249.5 77.0,260.0 60.0,260.0" fill="#ff7f0e" fill-opacity="0.10" stroke="none"/>
<circle cx="60.0" cy="260.0" r="3" fill="#ff7f0e"/>
<circle cx="77.0" cy="253.0" r="3" fill="#ff7f0e"/>
<circle cx="94.0" cy="239.0" r="3" fill="#ff7f0e"/>
<circle cx="145.0" cy="232.0" r="3" fill="#ff7f0e"/>
<circle cx="230.0" cy="186.5" r="3" fill="#ff7f0e"/>
<circle cx="315.0" cy="113.0" r="3" fill="#ff7f0e"/>
<circle cx="400.0" cy="50.0" r="3" fill="#ff7f0e"/>
<polyline points="60.0,260.0 63.4,257.9 66.8,255.8 70.2,253.7 73.6,251.6 77.0,249.5 80.4,247.4 83.8,245.3 87.2,243.2 90.6,241.1 94.0,239.0 97.4,236.9 100.8,234.8 104.2,232.7 107.6,230.6 111.0,228.5 114.4,226.4 117.8,224.3 121.2,222.2 124.6,220.1 128.0,218.0 131.4,215.9 134.8,213.8 138.2,211.7 141.6,209.6 145.0,207.5 148.4,205.4 151.8,203.3 155.2,201.2 158.6,199.1 162.0,197.0 165.4,194.9 168.8,192.8 172.2,190.7 175.6,188.6 179.0,186.5 182.4,184.4 185.8,182.3 189.2,180.2 192.6,178.1 196.0,176.0 199.4,173.9 202.8,171.8 206.2,169.7 209.6,167.6 213.0,165.5 216.4,163.4 219.8,161.3 223.2,159.2 226.6,157.1 230.0,155.0 233.4,152.9 236.8,150.8 240.2,148.7 243.6,146.6 247.0,144.5 250.4,142.4 253.8,140.3 257.2,138.2 260.6,136.1 264.0,134.0 267.4,131.9 270.8,129.8 274.2,127.7 277.6,125.6 281.0,123.5 284.4,121.4 287.8,119.3 291.2,117.2 294.6,115.1 298.0,113.0 301.4,110.9 304.8,108.8 308.2,106.7 311.6,104.6 315.0,102.5 318.4,100.4 321.8,98.3 325.2,96.2 328.6,94.1 332.0,92.0 335.4,89.9 338.8,87.8 342.2,85.7 345.6,83.6 349.0,81.5 352.4,79.4 355.8,77.3 359.2,75.2 362.6,73.1 366.0,71.0 369.4,68.9 372.8,66.8 376.2,64.7 379.6,62.6 383.0,60.5 386.4,58.4 389.8,56.3 393.2,54.2 396.6,52.1 400.0,50.0" fill="none" stroke="#ff7f0e" stroke-width="1.8" stroke-dasharray="5,3"/>
<line x1="420" y1="68" x2="442" y2="68" stroke="#ff7f0e" stroke-width="2.5"/>
<text x="448" y="72">depth=2 · law m=1,k=1 · R²=0.95</text>
<polygon points="60.0,260.0 77.0,242.5 94.0,218.0 145.0,169.0 230.0,130.5 315.0,88.5 400.0,50.0 400.0,50.0 315.0,127.0 230.0,172.5 145.0,211.0 94.0,246.0 77.0,260.0 60.0,260.0" fill="#2ca02c" fill-opacity="0.10" stroke="none"/>
<circle cx="60.0" cy="260.0" r="3" fill="#2ca02c"/>
<circle cx="77.0" cy="253.0" r="3" fill="#2ca02c"/>
<circle cx="94.0" cy="232.0" r="3" fill="#2ca02c"/>
<circle cx="145.0" cy="193.5" r="3" fill="#2ca02c"/>
<circle cx="230.0" cy="151.5" r="3" fill="#2ca02c"/>
<circle cx="315.0" cy="106.0" r="3" fill="#2ca02c"/>
<circle cx="400.0" cy="50.0" r="3" fill="#2ca02c"/>
<polyline points="60.0,260.0 63.4,257.9 66.8,255.8 70.2,253.7 73.6,251.6 77.0,249.5 80.4,247.4 83.8,245.3 87.2,243.2 90.6,241.1 94.0,239.0 97.4,236.9 100.8,234.8 104.2,232.7 107.6,230.6 111.0,228.5 114.4,226.4 117.8,224.3 121.2,222.2 124.6,220.1 128.0,218.0 131.4,215.9 134.8,213.8 138.2,211.7 141.6,209.6 145.0,207.5 148.4,205.4 151.8,203.3 155.2,201.2 158.6,199.1 162.0,197.0 165.4,194.9 168.8,192.8 172.2,190.7 175.6,188.6 179.0,186.5 182.4,184.4 185.8,182.3 189.2,180.2 192.6,178.1 196.0,176.0 199.4,173.9 202.8,171.8 206.2,169.7 209.6,167.6 213.0,165.5 216.4,163.4 219.8,161.3 223.2,159.2 226.6,157.1 230.0,155.0 233.4,152.9 236.8,150.8 240.2,148.7 243.6,146.6 247.0,144.5 250.4,142.4 253.8,140.3 257.2,138.2 260.6,136.1 264.0,134.0 267.4,131.9 270.8,129.8 274.2,127.7 277.6,125.6 281.0,123.5 284.4,121.4 287.8,119.3 291.2,117.2 294.6,115.1 298.0,113.0 301.4,110.9 304.8,108.8 308.2,106.7 311.6,104.6 315.0,102.5 318.4,100.4 321.8,98.3 325.2,96.2 328.6,94.1 332.0,92.0 335.4,89.9 338.8,87.8 342.2,85.7 345.6,83.6 349.0,81.5 352.4,79.4 355.8,77.3 359.2,75.2 362.6,73.1 366.0,71.0 369.4,68.9 372.8,66.8 376.2,64.7 379.6,62.6 383.0,60.5 386.4,58.4 389.8,56.3 393.2,54.2 396.6,52.1 400.0,50.0" fill="none" stroke="#2ca02c" stroke-width="1.8" stroke-dasharray="5,3"/>
<line x1="420" y1="86" x2="442" y2="86" stroke="#2ca02c" stroke-width="2.5"/>
<text x="448" y="90">depth=3 · law m=1,k=1 · R²=0.99</text>
<polygon points="60.0,260.0 77.0,232.0 94.0,204.0 145.0,162.0 230.0,116.5 315.0,64.0 400.0,50.0 400.0,50.0 315.0,123.5 230.0,179.5 145.0,225.0 94.0,239.0 77.0,253.0 60.0,260.0" fill="#d62728" fill-opacity="0.10" stroke="none"/>
<circle cx="60.0" cy="260.0" r="3" fill="#d62728"/>
<circle cx="77.0" cy="242.5" r="3" fill="#d62728"/>
<circle cx="94.0" cy="221.5" r="3" fill="#d62728"/>
<circle cx="145.0" cy="197.0" r="3" fill="#d62728"/>
<circle cx="230.0" cy="144.5" r="3" fill="#d62728"/>
<circle cx="315.0" cy="92.0" r="3" fill="#d62728"/>
<circle cx="400.0" cy="50.0" r="3" fill="#d62728"/>
<polyline points="60.0,260.0 63.4,257.9 66.8,255.8 70.2,253.7 73.6,251.6 77.0,249.5 80.4,247.4 83.8,245.3 87.2,243.2 90.6,241.1 94.0,239.0 97.4,236.9 100.8,234.8 104.2,232.7 107.6,230.6 111.0,228.5 114.4,226.4 117.8,224.3 121.2,222.2 124.6,220.1 128.0,218.0 131.4,215.9 134.8,213.8 138.2,211.7 141.6,209.6 145.0,207.5 148.4,205.4 151.8,203.3 155.2,201.2 158.6,199.1 162.0,197.0 165.4,194.9 168.8,192.8 172.2,190.7 175.6,188.6 179.0,186.5 182.4,184.4 185.8,182.3 189.2,180.2 192.6,178.1 196.0,176.0 199.4,173.9 202.8,171.8 206.2,169.7 209.6,167.6 213.0,165.5 216.4,163.4 219.8,161.3 223.2,159.2 226.6,157.1 230.0,155.0 233.4,152.9 236.8,150.8 240.2,148.7 243.6,146.6 247.0,144.5 250.4,142.4 253.8,140.3 257.2,138.2 260.6,136.1 264.0,134.0 267.4,131.9 270.8,129.8 274.2,127.7 277.6,125.6 281.0,123.5 284.4,121.4 287.8,119.3 291.2,117.2 294.6,115.1 298.0,113.0 301.4,110.9 304.8,108.8 308.2,106.7 311.6,104.6 315.0,102.5 318.4,100.4 321.8,98.3 325.2,96.2 328.6,94.1 332.0,92.0 335.4,89.9 338.8,87.8 342.2,85.7 345.6,83.6 349.0,81.5 352.4,79.4 355.8,77.3 359.2,75.2 362.6,73.1 366.0,71.0 369.4,68.9 372.8,66.8 376.2,64.7 379.6,62.6 383.0,60.5 386.4,58.4 389.8,56.3 393.2,54.2 396.6,52.1 400.0,50.0" fill="none" stroke="#d62728" stroke-width="1.8" stroke-dasharray="5,3"/>
<line x1="420" y1="104" x2="442" y2="104" stroke="#d62728" stroke-width="2.5"/>
<text x="448" y="108">depth=4 · law m=1,k=1 · R²=0.98</text>
<polygon points="60.0,260.0 77.0,260.0 94.0,232.0 145.0,193.5 230.0,127.0 315.0,71.0 400.0,50.0 400.0,50.0 315.0,99.0 230.0,169.0 145.0,214.5 94.0,260.0 77.0,260.0 60.0,260.0" fill="#9467bd" fill-opacity="0.10" stroke="none"/>
<circle cx="60.0" cy="260.0" r="3" fill="#9467bd"/>
<circle cx="77.0" cy="260.0" r="3" fill="#9467bd"/>
<circle cx="94.0" cy="246.0" r="3" fill="#9467bd"/>
<circle cx="145.0" cy="204.0" r="3" fill="#9467bd"/>
<circle cx="230.0" cy="148.0" r="3" fill="#9467bd"/>
<circle cx="315.0" cy="85.0" r="3" fill="#9467bd"/>
<circle cx="400.0" cy="50.0" r="3" fill="#9467bd"/>
<polyline points="60.0,260.0 63.4,257.9 66.8,255.8 70.2,253.7 73.6,251.6 77.0,249.5 80.4,247.4 83.8,245.3 87.2,243.2 90.6,241.1 94.0,239.0 97.4,236.9 100.8,234.8 104.2,232.7 107.6,230.6 111.0,228.5 114.4,226.4 117.8,224.3 121.2,222.2 124.6,220.1 128.0,218.0 131.4,215.9 134.8,213.8 138.2,211.7 141.6,209.6 145.0,207.5 148.4,205.4 151.8,203.3 155.2,201.2 158.6,199.1 162.0,197.0 165.4,194.9 168.8,192.8 172.2,190.7 175.6,188.6 179.0,186.5 182.4,184.4 185.8,182.3 189.2,180.2 192.6,178.1 196.0,176.0 199.4,173.9 202.8,171.8 206.2,169.7 209.6,167.6 213.0,165.5 216.4,163.4 219.8,161.3 223.2,159.2 226.6,157.1 230.0,155.0 233.4,152.9 236.8,150.8 240.2,148.7 243.6,146.6 247.0,144.5 250.4,142.4 253.8,140.3 257.2,138.2 260.6,136.1 264.0,134.0 267.4,131.9 270.8,129.8 274.2,127.7 277.6,125.6 281.0,123.5 284.4,121.4 287.8,119.3 291.2,117.2 294.6,115.1 298.0,113.0 301.4,110.9 304.8,108.8 308.2,106.7 311.6,104.6 315.0,102.5 318.4,100.4 321.8,98.3 325.2,96.2 328.6,94.1 332.0,92.0 335.4,89.9 338.8,87.8 342.2,85.7 345.6,83.6 349.0,81.5 352.4,79.4 355.8,77.3 359.2,75.2 362.6,73.1 366.0,71.0 369.4,68.9 372.8,66.8 376.2,64.7 379.6,62.6 383.0,60.5 386.4,58.4 389.8,56.3 393.2,54.2 396.6,52.1 400.0,50.0" fill="none" stroke="#9467bd" stroke-width="1.8" stroke-dasharray="5,3"/>
<line x1="420" y1="122" x2="442" y2="122" stroke="#9467bd" stroke-width="2.5"/>
<text x="448" y="126">depth=5 · law m=1,k=1 · R²=0.99</text>
<text x="420" y="148" fill="#555">dots: observed (band = 95% cluster bootstrap); dashed: zero-parameter law</text>
</svg>